<svg width="22" height="22" viewBox="0 0 22 22" fill="none" xmlns="http://www.w3.org/2000/svg">
<path d="M11 15.4444C12.1787 15.4444 13.3092 14.9762 14.1427 14.1427C14.9762 13.3092 15.4444 12.1787 15.4444 11C15.4444 9.82125 14.9762 8.69078 14.1427 7.85729C13.3092 7.02379 12.1787 6.55554 11 6.55554C9.82125 6.55554 8.69078 7.02379 7.85729 7.85729C7.02379 8.69078 6.55554 9.82125 6.55554 11C6.55554 12.1787 7.02379 13.3092 7.85729 14.1427C8.69078 14.9762 9.82125 15.4444 11 15.4444Z" stroke="white" stroke-width="1.5" stroke-linecap="round" stroke-linejoin="round"/>
<path d="M1 15.4444V6.55556C1 5.08213 1.58532 3.66905 2.62718 2.62718C3.66905 1.58532 5.08213 1 6.55556 1H15.4444C16.9179 1 18.3309 1.58532 19.3728 2.62718C20.4147 3.66905 21 5.08213 21 6.55556V15.4444C21 16.9179 20.4147 18.3309 19.3728 19.3728C18.3309 20.4147 16.9179 21 15.4444 21H6.55556C5.08213 21 3.66905 20.4147 2.62718 19.3728C1.58532 18.3309 1 16.9179 1 15.4444Z" stroke="white" stroke-width="1.5"/>
<path d="M17.1111 4.90004L17.1222 4.88782" stroke="white" stroke-width="1.5" stroke-linecap="round" stroke-linejoin="round"/>
</svg>
