<svg width="31" height="31" viewBox="0 0 31 31" fill="none" xmlns="http://www.w3.org/2000/svg">
<path d="M17.4481 25.0897C17.6823 25.324 17.8139 25.6417 17.8139 25.9729C17.8139 26.3041 17.6823 26.6218 17.4481 26.8561L15.8955 28.4178C14.2535 30.0585 12.0269 30.9798 9.70544 30.9791C7.38403 30.9783 5.158 30.0556 3.51703 28.4139C1.87606 26.7722 0.95459 24.546 0.955323 22.225C0.956055 19.904 1.87893 17.6784 3.52094 16.0377L7.28859 12.2708C8.86577 10.6926 10.9865 9.77673 13.2169 9.71053C15.4473 9.64434 17.6187 10.4328 19.2867 11.9147C19.4098 12.0238 19.5101 12.1561 19.5821 12.304C19.654 12.4519 19.6961 12.6125 19.706 12.7766C19.7159 12.9408 19.6933 13.1053 19.6396 13.2608C19.5858 13.4162 19.502 13.5595 19.3929 13.6826C19.2838 13.8056 19.1515 13.906 19.0035 13.9779C18.8556 14.0499 18.695 14.092 18.5308 14.1018C18.3666 14.1117 18.2021 14.0891 18.0466 14.0354C17.8911 13.9817 17.7477 13.8979 17.6247 13.7888C16.4333 12.731 14.8828 12.1682 13.2902 12.2156C11.6976 12.2629 10.1833 12.9167 9.05683 14.0434L5.28917 17.8056C4.11717 18.9774 3.45875 20.5667 3.45875 22.2239C3.45875 23.881 4.11717 25.4703 5.28917 26.6421C6.46117 27.8139 8.05075 28.4722 9.7082 28.4722C11.3657 28.4722 12.9552 27.8139 14.1272 26.6421L15.6799 25.0897C15.796 24.9735 15.9338 24.8814 16.0855 24.8185C16.2372 24.7556 16.3998 24.7233 16.564 24.7233C16.7283 24.7233 16.8909 24.7556 17.0426 24.8185C17.1943 24.8814 17.3321 24.9735 17.4481 25.0897ZM28.395 3.53738C26.7527 1.89912 24.5276 0.979065 22.2077 0.979065C19.8878 0.979065 17.6627 1.89912 16.0204 3.53738L14.4678 5.09134C14.2335 5.32578 14.102 5.64366 14.1021 5.97506C14.1022 6.30647 14.2341 6.62424 14.4685 6.85847C14.703 7.0927 15.021 7.22421 15.3524 7.22407C15.6839 7.22392 16.0017 7.09213 16.236 6.85769L17.7887 5.3053C18.9607 4.13351 20.5502 3.47521 22.2077 3.47521C23.8652 3.47521 25.4547 4.13351 26.6267 5.3053C27.7987 6.47708 28.4572 8.06637 28.4572 9.72352C28.4572 11.3807 27.7987 12.97 26.6267 14.1418L22.8591 17.9118C21.7321 19.0378 20.2174 19.6908 18.6248 19.7373C17.0322 19.7837 15.482 19.2201 14.2913 18.1617C14.0427 17.9414 13.7167 17.8288 13.3851 17.8487C13.0535 17.8686 12.7434 18.0194 12.523 18.2679C12.3026 18.5165 12.19 18.8423 12.2099 19.1739C12.2298 19.5054 12.3807 19.8155 12.6292 20.0358C14.2969 21.5181 16.468 22.3071 18.6984 22.2415C20.9288 22.1759 23.0497 21.2606 24.6273 19.6829L28.395 15.9159C30.0345 14.2738 30.9553 12.0484 30.9553 9.72821C30.9553 7.40799 30.0345 5.18258 28.395 3.54051V3.53738Z" fill="#3DCCC7"/>
</svg>
